<svg xmlns="http://www.w3.org/2000/svg" viewBox="0 0 120 120"><defs><style>.cls-1{fill:#cf0;}.cls-2{fill:none;stroke:#000;stroke-linecap:round;stroke-linejoin:round;stroke-width:3px;}</style></defs><title>icons-contact-hover</title><g id="Layer_2" data-name="Layer 2"><path class="cls-1" d="M11.059,75.917a42.266,42.266,0,0,1,17.5,22.012c1.3,3.754,7.084,5.307,9.139,1.195A228.033,228.033,0,0,1,95.518,26.136c4.939-4.138-2.167-11.18-7.071-7.072A235.094,235.094,0,0,0,29.065,94.076l9.139,1.2a53.249,53.249,0,0,0-22.1-27.988c-5.459-3.444-10.482,5.206-5.047,8.634Z"/><path class="cls-1" d="M53.935,105.057a152.991,152.991,0,0,1,55.006-65.006c5.329-3.554.327-12.219-5.047-8.635C78.364,48.443,57.854,71.925,45.3,100.01c-2.6,5.826,6.011,10.918,8.635,5.047Z"/></g><g id="Layer_1" data-name="Layer 1"><circle class="cls-2" cx="60" cy="60" r="33.5"/><polyline class="cls-2" points="39.889 56.605 74.435 44.086 68.537 76.586 58.065 67.679 52.167 71.892 49.278 64.188 66.467 53.533"/></g></svg>