<svg id="Layer_1" data-name="Layer 1" xmlns="http://www.w3.org/2000/svg" viewBox="0 0 130 100"><defs><style>.cls-1{fill:#ff6d30;}.cls-2{fill:#fff;}</style></defs><title>icon</title><path class="cls-1" d="M123.092,40.792h-5.515a59.814,59.814,0,0,0-11.454-7.126c-.418-.21-.838-.4-1.257-.6a3.732,3.732,0,0,0-1.522-6.09c-6.152-1.953-11.852-5.092-18.257-6.219a3.937,3.937,0,0,0-4.411,4.851c-.375-.051-.75-.117-1.125-.162a51.944,51.944,0,0,0-12.478-.157V24.24H54.005v8.844q.273,3.012,5.342,5.547a25.525,25.525,0,0,0,10.719,2.654,20.4,20.4,0,0,0,9.894-1.866,11.861,11.861,0,0,0,2.467-1.61A5.042,5.042,0,0,0,83.8,36.131l1.1-2.534c.044-.068.113-.194.2-.376a1.64,1.64,0,0,1,.41-.617q1.1-.547,4.486.154A26.938,26.938,0,0,1,96.6,35.07q7.258,3.628,6.678,6.865t-10.1,8L83.112,54.965c-1.56-.666-3.081-1.286-4.6-1.9a3.545,3.545,0,0,0-.591-5.66c-3.081-1.826-5.468-3.788-9.081-4.577-3.544-.774-7.209-.871-10.8-1.333a3.22,3.22,0,0,0-1.694.206,3.378,3.378,0,0,0-2.168-.757,11.269,11.269,0,0,1-1.134-.054c-.133-.018-.371-.047-.492-.066a23.991,23.991,0,0,0-2.889-.332,3.687,3.687,0,0,0-3.532,2.823c-1.268-.211-2.523-.407-3.74-.557q-17.089-2.1-28.593,3.648H5.926V55.89Q6.2,61.3,14.761,65.581a57.16,57.16,0,0,0,15.478,4.76,129.938,129.938,0,0,0,18.287,1.773v4.942a4.537,4.537,0,0,0,0,2.051q.753,3.048,6.027,5.685a42.12,42.12,0,0,0,13.971,3.835q8.217.96,11.231-.548a1.487,1.487,0,0,0,.959-1.13V78.49H78.935l30.75-15.375q12.565-6.282,13.348-12.592h.059ZM52.67,67.515c-.194.024-.381.032-.573.052.692-2.126-.4-4.873-3.281-4.806-4.665.11-8.922-2.519-13.622-2.639a3.975,3.975,0,0,0-.952.1c.17-1.674,1.725-3.254,4.7-4.739q6.782-3.39,16.266-2.791t21.95,5.256q-2.739,1.576-4.075,2.278c-.892.468-1.723.9-2.5,1.284Q60.442,66.573,52.67,67.515Z"/><path class="cls-2" d="M51.539,63.731a136.04,136.04,0,0,1-21.3-1.849,57.16,57.16,0,0,1-15.478-4.76Q6.2,52.843,5.926,47.431T13.8,37.946Q25.308,32.194,42.4,34.3T83.112,46.507l10.067-5.034q9.519-4.76,10.1-8T96.6,26.611a26.976,26.976,0,0,0-6.61-2.311q-3.391-.7-4.486-.154a1.633,1.633,0,0,0-.41.616c-.092.183-.161.308-.2.377l-1.1,2.534a5.062,5.062,0,0,1-1.369,1.678A11.859,11.859,0,0,1,79.96,30.96a20.4,20.4,0,0,1-9.894,1.866,25.51,25.51,0,0,1-10.719-2.654q-5.07-2.535-5.342-5.547t4.382-5.342q7.809-3.9,21.164-2.294a80.845,80.845,0,0,1,26.572,8.218q16.028,8.013,16.917,15.17t-13.355,14.28l-35.34,17.67q-1.917.958-2.158,1.763t1.2,1.524a15.4,15.4,0,0,0,3.46.976,16.59,16.59,0,0,1,3.116.8q.82.411.752,1.1a1.487,1.487,0,0,1-.959,1.131q-3.012,1.506-11.231.547a42.073,42.073,0,0,1-13.971-3.835q-5.275-2.638-6.027-5.684T51.539,63.731ZM77.153,49.486Q64.688,44.829,55.2,44.23T38.937,47.021q-4.656,2.328-4.726,4.965t4.521,4.931a24.054,24.054,0,0,0,13.938,2.14q7.771-.944,17.908-6.01,1.164-.582,2.5-1.284T77.153,49.486Z"/></svg>