<svg id="Layer_1" data-name="Layer 1" xmlns="http://www.w3.org/2000/svg" viewBox="0 0 130 100"><defs><style>.cls-1{fill:#fff;}.cls-2{fill:#4097ff;}</style></defs><title>icon</title><polygon class="cls-1" points="27.328 28.25 27.328 71.75 65 93.5 65 50 27.328 28.25"/><polygon class="cls-2" points="65 6.5 27.328 28.25 65 50 65 93.5 102.672 71.75 102.672 28.25 65 6.5"/><path class="cls-1" d="M61.861,39.49A3.132,3.132,0,0,1,65,36.35h0a3.132,3.132,0,0,1,3.139,3.14h0A3.14,3.14,0,0,1,65,42.629h0A3.14,3.14,0,0,1,61.861,39.49Zm0-10.523A3.14,3.14,0,0,1,65,25.828h0a3.14,3.14,0,0,1,3.139,3.139h0A3.14,3.14,0,0,1,65,32.106h0A3.14,3.14,0,0,1,61.861,28.967Zm0-10.511A3.132,3.132,0,0,1,65,15.317h0a3.132,3.132,0,0,1,3.139,3.139h0A3.141,3.141,0,0,1,65,21.6h0A3.141,3.141,0,0,1,61.861,18.456Z"/><path class="cls-1" d="M92.789,69.678a3.156,3.156,0,0,1-1.143-4.3h0a3.118,3.118,0,0,1,4.283-1.143v-.012a3.145,3.145,0,0,1,1.155,4.3h0a3.165,3.165,0,0,1-2.725,1.569h0A3.269,3.269,0,0,1,92.789,69.678Z"/><path class="cls-1" d="M83.007,64.027h0a3.148,3.148,0,0,1-1.155-4.3h0a3.138,3.138,0,0,1,4.294-1.142h0a3.123,3.123,0,0,1,1.143,4.282h0a3.129,3.129,0,0,1-2.712,1.569h0A3.2,3.2,0,0,1,83.007,64.027Z"/><path class="cls-1" d="M73.225,58.376h-.012a3.153,3.153,0,0,1-1.143-4.294h0a3.116,3.116,0,0,1,4.282-1.143v-.013a3.145,3.145,0,0,1,1.155,4.295h0a3.149,3.149,0,0,1-2.725,1.57h0A3.184,3.184,0,0,1,73.225,58.376Z"/><path class="cls-2" d="M32.916,68.523a3.129,3.129,0,0,1,1.155-4.283h0a3.128,3.128,0,0,1,4.283,1.143h0a3.154,3.154,0,0,1-1.143,4.3h0a3.269,3.269,0,0,1-1.57.414h0A3.135,3.135,0,0,1,32.916,68.523Z"/><path class="cls-2" d="M42.711,62.872a3.132,3.132,0,0,1,1.143-4.282v-.013a3.156,3.156,0,0,1,4.294,1.155h0a3.129,3.129,0,0,1-1.155,4.283h0a3.082,3.082,0,0,1-1.57.426h0A3.129,3.129,0,0,1,42.711,62.872Z"/><path class="cls-2" d="M52.493,57.221a3.125,3.125,0,0,1,1.155-4.282v-.013a3.152,3.152,0,0,1,4.282,1.156h0a3.149,3.149,0,0,1-1.142,4.294h0a3.267,3.267,0,0,1-1.57.415h0A3.136,3.136,0,0,1,52.493,57.221Z"/><polygon class="cls-2" points="37.211 69.678 56.788 58.376 53.648 52.926 34.071 64.24 37.211 69.678"/><rect class="cls-1" x="61.861" y="18.456" width="6.279" height="21.034"/><rect class="cls-1" x="81.431" y="50.006" width="6.279" height="22.605" transform="translate(-10.809 103.894) rotate(-60)"/></svg>