<svg id="Layer_1" data-name="Layer 1" xmlns="http://www.w3.org/2000/svg" viewBox="0 0 130 100"><defs><style>.cls-1{fill:#fff;}.cls-2{fill:#12cedd;}</style></defs><title>icon</title><polygon class="cls-1" points="24.651 76.891 66.868 55.783 109.085 76.891 66.868 98 24.651 76.891"/><path class="cls-2" d="M79.237,43.138c-2.4-2.5-5.056-6.1-4.453-9.895.628-3.949,4.224-4.6,6.1-9.566,2.371-6.266-.655-12.37-.824-12.7A14.715,14.715,0,0,0,77.3,7.226a15,15,0,0,0-20.87,0,14.713,14.713,0,0,0-2.758,3.752c-.17.329-3.2,6.433-.825,12.7,1.878,4.965,5.475,5.617,6.1,9.566.6,3.795-2.051,7.4-4.453,9.895Z"/><path class="cls-2" d="M74.8,69.693l-.5-.252a12.047,12.047,0,0,0-6.247-1.2,25.975,25.975,0,0,0-8,2.09l-1.807-.9,10.165-4.735L91.221,76.1,81.8,81.205l-1.859-.929q3.769-2.286,4.2-3.993T81.734,73.16l-.5-.252L61.89,82.578q-1.7.852-1.616,1.442T62.5,85.871l-1.807.9L47.068,79.963l1.807-.9a12.1,12.1,0,0,0,3.7,1.113,6.232,6.232,0,0,0,2.885-.809Z"/><polygon class="cls-1" points="24.651 55.783 24.651 76.891 66.868 55.783 66.868 34.674 24.651 55.783"/><polygon class="cls-2" points="66.868 34.674 66.868 55.783 109.085 76.891 109.085 55.783 66.868 34.674"/><path class="cls-1" d="M56.382,12.669c.494-2.089,2.664-4.016,4.523-3.5,1.878.526,2.655,3.326,2.057,5.346-.527,1.777-2.32,3.637-4.113,3.29C56.943,17.44,55.892,14.741,56.382,12.669Z"/></svg>