<?xml version="1.0" encoding="utf-8"?>
<!-- Generator: Adobe Illustrator 23.0.1, SVG Export Plug-In . SVG Version: 6.00 Build 0)  -->
<svg version="1.1" id="Layer_1" xmlns="http://www.w3.org/2000/svg" xmlns:xlink="http://www.w3.org/1999/xlink" x="0px" y="0px"
	 viewBox="0 0 130 100" style="enable-background:new 0 0 130 100;" xml:space="preserve">
<style type="text/css">
	.st0{fill:#FF6D30;}
	.st1{fill:#FFFFFF;}
</style>
<g>
	<title>icon</title>
	<path class="st0" d="M118.673,42.809h-5.099c-3.27-2.588-6.823-4.799-10.59-6.588c-0.386-0.194-0.775-0.37-1.162-0.555
		c1.305-1.389,1.237-3.572-0.152-4.877c-0.36-0.338-0.788-0.595-1.255-0.753c-5.688-1.806-10.958-4.708-16.88-5.75
		c-1.987-0.303-3.844,1.063-4.146,3.051c-0.073,0.478-0.05,0.966,0.068,1.434c-0.347-0.047-0.693-0.108-1.04-0.15
		c-3.826-0.512-7.699-0.561-11.537-0.145v-0.97H54.797v8.177c0.168,1.857,1.815,3.566,4.939,5.129
		c3.085,1.531,6.468,2.369,9.91,2.454c3.145,0.198,6.291-0.395,9.148-1.725c0.819-0.399,1.585-0.9,2.281-1.489
		c0.531-0.419,0.964-0.948,1.269-1.551l1.017-2.343c0.041-0.063,0.104-0.179,0.185-0.348c0.081-0.217,0.211-0.412,0.379-0.57
		c0.678-0.337,2.061-0.29,4.148,0.142c2.12,0.444,4.172,1.163,6.106,2.138c4.474,2.236,6.532,4.352,6.174,6.347
		s-3.47,4.461-9.338,7.397l-9.307,4.651c-1.442-0.616-2.849-1.189-4.253-1.757c1.333-1.225,1.421-3.298,0.196-4.631
		c-0.217-0.236-0.467-0.439-0.742-0.602c-2.849-1.688-5.056-3.502-8.396-4.232c-3.277-0.716-6.665-0.805-9.985-1.232
		c-0.53-0.079-1.071-0.013-1.566,0.19c-0.566-0.46-1.275-0.708-2.004-0.7c-0.35,0.001-0.7-0.016-1.048-0.05
		c-0.123-0.017-0.343-0.043-0.455-0.061c-0.883-0.156-1.775-0.259-2.671-0.307c-1.557,0.022-2.901,1.096-3.266,2.61
		c-1.172-0.195-2.333-0.376-3.458-0.515C33.526,43.333,24.714,44.457,17.623,48h-7.278v8.769c0.169,3.335,2.892,6.321,8.169,8.96
		c4.537,2.139,9.356,3.621,14.311,4.401c5.59,0.945,11.24,1.492,16.908,1.639v4.569c-0.145,0.624-0.145,1.272,0,1.896
		c0.464,1.879,2.322,3.631,5.572,5.256c4.069,1.919,8.439,3.119,12.917,3.546c5.065,0.592,8.526,0.423,10.384-0.507
		c0.46-0.166,0.798-0.564,0.887-1.045v-7.821h-1.645l28.431-14.215c7.745-3.872,11.859-7.753,12.341-11.642h0.055L118.673,42.809z
		 M53.563,67.517c-0.179,0.022-0.352,0.03-0.53,0.048c0.64-1.966-0.37-4.505-3.034-4.443c-4.313,0.102-8.249-2.329-12.595-2.44
		c-0.296-0.005-0.592,0.026-0.88,0.092c0.157-1.548,1.595-3.009,4.345-4.382c4.18-2.09,9.193-2.95,15.039-2.58
		s12.611,1.989,20.294,4.86c-1.688,0.971-2.944,1.673-3.768,2.106c-0.825,0.433-1.593,0.832-2.311,1.187
		C63.874,65.085,58.353,66.936,53.563,67.517z"/>
	<path class="st1" d="M52.517,64.018c-6.599-0.052-13.184-0.624-19.693-1.71c-4.955-0.78-9.773-2.262-14.311-4.401
		c-5.277-2.637-8-5.624-8.169-8.96s2.258-6.259,7.28-8.77c7.093-3.545,15.908-4.669,26.443-3.371
		c10.535,1.298,23.082,5.06,37.641,11.286l9.308-4.654c5.867-2.934,8.98-5.399,9.338-7.397c0.358-1.997-1.7-4.112-6.175-6.344
		c-1.936-0.975-3.99-1.693-6.111-2.137c-2.09-0.431-3.473-0.479-4.148-0.142c-0.168,0.158-0.298,0.353-0.379,0.57
		c-0.085,0.169-0.149,0.285-0.185,0.349l-1.017,2.343c-0.305,0.602-0.737,1.132-1.266,1.551c-0.695,0.589-1.461,1.088-2.279,1.488
		c-2.857,1.33-6.002,1.923-9.148,1.725c-3.443-0.085-6.826-0.922-9.91-2.454c-3.125-1.563-4.771-3.272-4.939-5.129
		c-0.168-1.857,1.183-3.503,4.051-4.939c4.813-2.404,11.336-3.111,19.568-2.121c8.567,1.094,16.879,3.665,24.568,7.598
		c9.879,4.939,15.093,9.614,15.641,14.026c0.548,4.411-3.568,8.812-12.348,13.203L73.603,71.966c-1.182,0.59-1.847,1.134-1.995,1.63
		s0.221,0.966,1.109,1.409c1.027,0.425,2.101,0.728,3.199,0.902c0.982,0.153,1.947,0.4,2.881,0.74
		c0.505,0.253,0.737,0.592,0.695,1.017c-0.088,0.482-0.426,0.88-0.887,1.046c-1.857,0.928-5.318,1.097-10.384,0.506
		c-4.478-0.426-8.849-1.626-12.917-3.546c-3.251-1.626-5.109-3.378-5.572-5.255C49.269,68.537,50.197,66.405,52.517,64.018z
		 M76.199,50.847c-7.683-2.87-14.449-4.49-20.297-4.86c-5.848-0.369-10.86,0.491-15.036,2.58c-2.87,1.435-4.326,2.965-4.37,4.59
		c-0.043,1.625,1.35,3.145,4.18,4.559c4.001,1.932,8.49,2.621,12.887,1.979c4.79-0.582,10.309-2.434,16.557-5.557
		c0.717-0.359,1.488-0.754,2.311-1.187C73.255,52.52,74.511,51.818,76.199,50.847z"/>
</g>
</svg>
