<svg id="Layer_1" data-name="Layer 1" xmlns="http://www.w3.org/2000/svg" viewBox="0 0 130 100"><defs><style>.cls-1{fill:#fba32b;}.cls-2{fill:#fff;}</style></defs><title>icon</title><path class="cls-1" d="M65.388,89a74.417,74.417,0,0,0-42.5-.217,1.7,1.7,0,0,1-2.2-1.6l-.28-27.484-.3-29.76a74.4,74.4,0,0,1,44.673-.455l.3,29.76Z"/><path class="cls-1" d="M110.005,86.268a1.7,1.7,0,0,1-2.165,1.648A74.408,74.408,0,0,0,65.355,89l-.3-29.76-.3-29.76a74.4,74.4,0,0,1,44.672-.454l.3,29.76Z"/><path class="cls-1" d="M65.365,86.679a79.515,79.515,0,0,0-45.57-.188,1.7,1.7,0,0,1-2.2-1.6l-.3-29.531-.324-31.806a79.52,79.52,0,0,1,47.744-.486l.323,31.806Z"/><path class="cls-1" d="M113.051,83.918a1.7,1.7,0,0,1-2.164,1.645,79.54,79.54,0,0,0-45.556,1.116l-.324-31.806-.324-31.806a79.54,79.54,0,0,1,47.744-.486l.323,31.806Z"/><path class="cls-2" d="M65.338,83.913a83.818,83.818,0,0,0-48.146-.165,1.7,1.7,0,0,1-2.2-1.6L14.674,50.9l-.328-32.257a1.709,1.709,0,0,1,1.2-1.651,83.819,83.819,0,0,1,49.114-.128L65,50.389Z"/><path class="cls-1" d="M115.6,81.122a1.7,1.7,0,0,1-2.167,1.647A83.809,83.809,0,0,0,65.3,83.913L64.96,50.389l-.341-33.524a83.816,83.816,0,0,1,49.107-.871,1.71,1.71,0,0,1,1.229,1.626l.328,32.257Z"/><path class="cls-1" d="M56.178,42.743a83.82,83.82,0,0,0-35.607.965l-.112-10.985-.111-10.985a83.819,83.819,0,0,1,35.607-.965l.111,10.985Z"/><path class="cls-1" d="M38.576,65.423a8.443,8.443,0,0,0-2.685-6.142A7.708,7.708,0,0,0,29.557,57.3a9.854,9.854,0,0,0-6.233,3.677,10.886,10.886,0,0,0-2.507,6.844,7.067,7.067,0,0,0,2.635,5.665,8.289,8.289,0,0,0,6.285,1.5,10.651,10.651,0,0,0,6.282-3.2A9.1,9.1,0,0,0,38.576,65.423Z"/><path class="cls-2" d="M82.827,74.147q-2.23.224-4.45.568t-4.42.807q-.139-13.733-.28-27.463L73.4,20.6q2.2-.462,4.42-.807t4.449-.568l.28,27.464Z"/><path class="cls-2" d="M109.576,75.762a83.787,83.787,0,0,0-17.8-2.034L91.66,62.743l-.112-10.986a83.807,83.807,0,0,1,17.8,2.034l.111,10.985Z"/></svg>