<?xml version="1.0" encoding="utf-8"?>
<!-- Generator: Adobe Illustrator 23.0.1, SVG Export Plug-In . SVG Version: 6.00 Build 0)  -->
<svg version="1.1" id="Layer_1" xmlns="http://www.w3.org/2000/svg" xmlns:xlink="http://www.w3.org/1999/xlink" x="0px" y="0px"
	 viewBox="0 0 195 150" style="enable-background:new 0 0 195 150;" xml:space="preserve">
<style type="text/css">
	.st0{fill:#FFFFFF;}
	.st1{fill:#5D33E2;}
</style>
<g>
	<path class="st0" d="M143.403,13.9H51.597c-8.393,0-15.197,6.804-15.197,15.197v7.363v84.443c0,8.393,6.804,15.197,15.197,15.197
		h91.807c8.393,0,15.197-6.804,15.197-15.197V36.46v-7.363C158.6,20.704,151.796,13.9,143.403,13.9z"/>
	<g>
		<circle class="st1" cx="70.912" cy="87.44" r="6.914"/>
		<circle class="st1" cx="105.046" cy="49.658" r="6.914"/>
		<path class="st1" d="M106.57,84.07c-15.851,15.851-34.726,28.679-55.684,37.544h85.638c4.192,0,7.59-3.398,7.59-7.59V28.386
			C135.249,49.345,122.421,68.219,106.57,84.07z M121.197,104.859c-3.818,0-6.914-3.095-6.914-6.914
			c0-3.818,3.095-6.914,6.914-6.914c3.818,0,6.914,3.095,6.914,6.914C128.11,101.764,125.015,104.859,121.197,104.859z"/>
	</g>
</g>
</svg>
