<svg id="Layer_1" data-name="Layer 1" xmlns="http://www.w3.org/2000/svg" viewBox="0 0 120 120"><defs><style>.cls-1{fill:none;stroke:#000;stroke-linecap:round;stroke-linejoin:round;stroke-width:3px;}</style></defs><title>icons-contact</title><path class="cls-1" d="M54.2,74.018a2.754,2.754,0,0,0-2.536-1.905,51.856,51.856,0,0,0-19.153,3.129,2.742,2.742,0,0,0-1.8,2.613A13.431,13.431,0,0,0,32.9,85.2a14.192,14.192,0,0,0,7.4,5.3c9.96,3.544,26.354-3.35,37.233-14.3,0,0,11.526-11.6,14.134-29.067.97-6.5.081-9.762-1.6-12.133-2.813-3.967-7.615-5.122-10.542-5.46a2.763,2.763,0,0,0-2.956,1.872,59.414,59.414,0,0,0-2.936,18.912,2.764,2.764,0,0,0,1.407,2.387q1.313.745,2.627,1.489A35.986,35.986,0,0,1,55.133,76.867Z"/></svg>