<svg id="Layer_1" data-name="Layer 1" xmlns="http://www.w3.org/2000/svg" viewBox="0 0 130 100"><defs><style>.cls-1{fill:#00c693;}.cls-2{fill:#fff;}</style></defs><title>icon</title><path class="cls-1" d="M104.016,17.39A5.524,5.524,0,0,0,96.6,12.2l-5.758,2.1L77.672,19.088V93l13.172-4.794,9.537-3.471a5.526,5.526,0,0,0,3.635-5.192V17.39Z"/><polygon class="cls-2" points="64.5 14.294 51.328 9.5 51.328 46.456 51.328 83.412 64.5 88.206 77.672 93 77.672 56.044 77.672 19.088 64.5 14.294"/><path class="cls-1" d="M51.328,9.5,38.156,14.294l-9.537,3.471a5.526,5.526,0,0,0-3.635,5.192V85.11A5.524,5.524,0,0,0,32.4,90.3l5.758-2.095,13.172-4.794V9.5Z"/><path class="cls-2" d="M38.857,52.242v.107a6.273,6.273,0,0,0,.736,2.9,5.659,5.659,0,0,1,.735,1.894,2.222,2.222,0,0,1-.466,1.371,2.684,2.684,0,0,1-1.256.906,1.527,1.527,0,0,1-1.291.03,1.1,1.1,0,0,1-.467-1.041,10,10,0,0,1,.736-2.393,9.547,9.547,0,0,0,.735-3.362l-.018-.245c-.083.1-.233.271-.448.5a13.5,13.5,0,0,0-1.973,2.62l-.072.134q-1.345,2.427-2.422,2.818a1.112,1.112,0,0,1-1.121-.192,1.326,1.326,0,0,1-.529-1.108,2.213,2.213,0,0,1,.556-1.378,3.708,3.708,0,0,1,1.4-1.074c.084-.03.216-.084.395-.162a12.441,12.441,0,0,0,3.928-2.541,7.5,7.5,0,0,0-3.82.35c-.168.049-.287.086-.359.112a2.246,2.246,0,0,1-1.525-.01.97.97,0,0,1-.574-.966,2.7,2.7,0,0,1,.52-1.507A2.481,2.481,0,0,1,33.422,49q1.023-.372,2.153.867c.119.136.209.241.269.315a4.307,4.307,0,0,0,1.049.784,5.86,5.86,0,0,0,1.462.49v-.108a6.164,6.164,0,0,0-.735-2.88,5.522,5.522,0,0,1-.736-1.876,2.3,2.3,0,0,1,.467-1.389,2.628,2.628,0,0,1,1.255-.924,1.479,1.479,0,0,1,1.292-.013,1.143,1.143,0,0,1,.466,1.059,9.78,9.78,0,0,1-.735,2.376,9.388,9.388,0,0,0-.736,3.344l.018.244c.06-.069.186-.2.377-.406a14.511,14.511,0,0,0,2.045-2.717c.024-.045.078-.142.161-.292q1.291-2.282,2.332-2.661a1.1,1.1,0,0,1,1.13.2,1.385,1.385,0,0,1,.52,1.138,2.222,2.222,0,0,1-.565,1.372A3.7,3.7,0,0,1,43.521,49c-.107.039-.281.114-.52.225a11.189,11.189,0,0,0-3.8,2.442,7.342,7.342,0,0,0,3.749-.324c.168-.049.293-.083.377-.1a2.336,2.336,0,0,1,1.57-.033.989.989,0,0,1,.582,1.007,2.706,2.706,0,0,1-.529,1.5,2.484,2.484,0,0,1-1.157,1.013q-1.021.372-2.152-.867c-.12-.136-.209-.235-.269-.3a3.831,3.831,0,0,0-1.068-.849A5.288,5.288,0,0,0,38.857,52.242Z"/><polygon class="cls-2" points="92.248 42.902 86.368 61.009 98.128 57.637 92.248 42.902"/><path class="cls-1" d="M74.38,54.489a29.914,29.914,0,0,0-4.875-.4,4.25,4.25,0,0,0-2.8.907,5.359,5.359,0,0,0-1.43,2.849,42.331,42.331,0,0,0-.78,5.428,52.732,52.732,0,0,0-.78-5.844,9.66,9.66,0,0,0-1.43-3.613,8.266,8.266,0,0,0-2.8-2.4,39.364,39.364,0,0,0-4.875-2.2,30.027,30.027,0,0,0,4.875.4,4.25,4.25,0,0,0,2.8-.907,5.358,5.358,0,0,0,1.43-2.85,42.276,42.276,0,0,0,.78-5.428,52.755,52.755,0,0,0,.78,5.845,9.667,9.667,0,0,0,1.43,3.613,8.288,8.288,0,0,0,2.8,2.4A39.364,39.364,0,0,0,74.38,54.489Z"/></svg>