<?xml version="1.0" encoding="utf-8"?>
<!-- Generator: Adobe Illustrator 23.0.1, SVG Export Plug-In . SVG Version: 6.00 Build 0)  -->
<svg version="1.1" id="Layer_1" xmlns="http://www.w3.org/2000/svg" xmlns:xlink="http://www.w3.org/1999/xlink" x="0px" y="0px"
	 viewBox="0 0 195 150" style="enable-background:new 0 0 195 150;" xml:space="preserve">
<style type="text/css">
	.st0{fill:#4097FF;}
	.st1{fill:#FFFFFF;}
</style>
<path class="st0" d="M143.403,13.9H51.597c-8.393,0-15.197,6.804-15.197,15.197v7.363v84.443c0,8.393,6.804,15.197,15.197,15.197
	h91.807c8.393,0,15.197-6.804,15.197-15.197V36.46v-7.363C158.6,20.704,151.796,13.9,143.403,13.9z"/>
<path class="st1" d="M170.865,133.561c12.243-12.433,13.415-32.038,3.399-46.327l-14.773-21.076
	c-1.333-1.902-3.519-3.038-5.845-3.038c-1.466,0-2.878,0.446-4.083,1.292c-2.771,1.942-3.737,5.512-2.513,8.521
	c0.356,0.875,0.036,1.88-0.719,2.446l-0.04,0.03c-0.944,0.708-2.259,0.498-2.931-0.46l-2.898-4.134
	c-1.04-1.484-2.545-2.635-4.311-3.043c-2.044-0.473-4.096-0.065-5.756,1.099c-2.761,1.935-3.73,5.487-2.526,8.489
	c0.363,0.904,0.035,1.94-0.753,2.513l-0.001,0.001c-0.946,0.688-2.27,0.467-2.941-0.491l-2.498-3.564
	c-1.04-1.483-2.543-2.634-4.308-3.044c-2.046-0.476-4.1-0.067-5.761,1.097c-1.56,1.093-2.6,2.728-2.93,4.603
	c-0.229,1.307-0.095,2.623,0.378,3.828c0.332,0.847,0.129,1.854-0.563,2.444c-0.97,0.827-2.41,0.632-3.124-0.386
	c-4.229-6.034-18.241-26.024-22.038-31.442c-0.905-1.291-2.159-2.329-3.662-2.805c-2.355-0.747-4.773-0.301-6.637,1.143
	c-3.052,2.364-3.487,6.832-1.271,9.993c6.292,8.977,25.42,36.267,33.24,47.425c1.045,1.491-0.454,3.436-2.166,2.814l-0.41-0.149
	c-5.449-1.981-11.089-3.575-16.761-4.738c-0.504-0.103-1.017-0.155-1.525-0.155c-3.564,0-6.672,2.539-7.389,6.037
	c-0.836,4.079,1.802,8.078,5.881,8.915c12.037,2.466,23.396,6.985,33.764,13.433c2.764,1.719,5.432,3.58,8.016,5.551l0.01-0.01
	c15.22,7.789,33.473,5.389,45.378-5.771C170.163,134.26,170.518,133.914,170.865,133.561z"/>
</svg>
