<svg xmlns="http://www.w3.org/2000/svg" viewBox="0 0 120 120"><defs><style>.cls-1{fill:#cf0;}.cls-2{fill:none;stroke:#000;stroke-linecap:round;stroke-linejoin:round;stroke-width:3px;}</style></defs><title>icons-contact-hover</title><g id="Layer_2" data-name="Layer 2"><path class="cls-1" d="M59.413,24.207C73.76,23.722,86.832,27.521,96.989,38.1c12.942,13.485,5.516,30.776-9.4,38.8a4.992,4.992,0,0,0-2.477,4.317,33.465,33.465,0,0,0,17.374,29.446l2.524-9.317c-12.091.975-24.084-3.893-31.363-13.782C72.334,85.781,70.286,84.6,68,85.27,55.643,88.887,42,88.723,30.631,82.1A28.682,28.682,0,0,1,16.812,50.16c4.694-19.85,24.664-25.333,42.6-25.953,6.417-.221,6.447-10.222,0-10C35.215,15.043,9.9,24.865,6.377,52.042A38.437,38.437,0,0,0,24.429,90.036c13.715,8.644,30.99,9.337,46.233,4.877l-5.647-2.3c9.314,12.653,24.183,20.01,40,18.735,4.668-.377,7.152-6.746,2.523-9.318A23.387,23.387,0,0,1,95.115,81.221l-2.476,4.317c18.617-10.018,28.505-32.708,14.526-50.856-11.486-14.91-29.413-21.1-47.752-20.475C53,14.424,52.966,24.425,59.413,24.207Z"/></g><g id="Layer_1" data-name="Layer 1"><path class="cls-2" d="M54.2,74.018a2.754,2.754,0,0,0-2.536-1.905,51.856,51.856,0,0,0-19.153,3.129,2.742,2.742,0,0,0-1.8,2.613A13.431,13.431,0,0,0,32.9,85.2a14.192,14.192,0,0,0,7.4,5.3c9.96,3.544,26.354-3.35,37.233-14.3,0,0,11.526-11.6,14.134-29.067.97-6.5.081-9.762-1.6-12.133-2.813-3.967-7.615-5.122-10.542-5.46a2.763,2.763,0,0,0-2.956,1.872,59.414,59.414,0,0,0-2.936,18.912,2.764,2.764,0,0,0,1.407,2.387q1.313.745,2.627,1.489A35.986,35.986,0,0,1,55.133,76.867Z"/></g></svg>