<svg xmlns="http://www.w3.org/2000/svg" viewBox="0 0 120 120"><defs><style>.cls-1{fill:#cf0;}.cls-2{fill:none;stroke:#000;stroke-linecap:round;stroke-linejoin:round;stroke-width:3px;}</style></defs><title>icons-contact-hover</title><g id="Layer_2" data-name="Layer 2"><path class="cls-1" d="M26.312,18.063a237.839,237.839,0,0,1-.267,83.474,5.081,5.081,0,0,0,6.151,6.151,149.433,149.433,0,0,1,51.475,0c2.849.5,6.707-1.3,6.329-4.821a423.21,423.21,0,0,1-.267-87.734c.326-3.216-3.458-5.712-6.329-4.821A142.319,142.319,0,0,1,26.867,16c-6.4-.637-6.355,9.368,0,10a149.729,149.729,0,0,0,59.195-6.045l-6.329-4.822A423.21,423.21,0,0,0,80,102.867l6.329-4.822a163.834,163.834,0,0,0-56.791,0l6.15,6.151A251.973,251.973,0,0,0,35.955,15.4c-1.11-6.327-10.749-3.645-9.643,2.659Z"/></g><g id="Layer_1" data-name="Layer 1"><path class="cls-2" d="M89.307,41.261,62.934,63.728a4.524,4.524,0,0,1-5.869,0L30.693,41.261"/><line class="cls-2" x1="67.351" y1="59.965" x2="89.307" y2="78.67"/><line class="cls-2" x1="30.693" y1="78.67" x2="52.649" y2="59.965"/><rect class="cls-2" x="22.6" y="34.136" width="74.8" height="51.728" rx="3.664"/></g></svg>