<svg id="Layer_1" data-name="Layer 1" xmlns="http://www.w3.org/2000/svg" viewBox="0 0 130 100"><defs><style>.cls-1{fill:#fff;}.cls-2{fill:#21cc21;}.cls-3{fill:none;}</style></defs><title>icon</title><polygon class="cls-1" points="109.395 15.116 109.395 10.572 16.351 10.572 16.351 84.884 20.605 84.884 20.605 15.116 109.395 15.116"/><polygon class="cls-2" points="77.577 89.428 113.649 89.428 113.649 15.116 109.395 10.572 109.395 84.884 69.289 84.884 56.457 84.884 16.351 84.884 20.605 89.428 48.169 89.428 77.577 89.428"/><rect class="cls-3" x="20.605" y="15.116" width="88.791" height="69.768"/><path class="cls-2" d="M65.053,36.668a14.09,14.09,0,0,1,0,28.179H93.231V36.668Z"/><path class="cls-3" d="M52.858,43.724l4.061,7.034,8.134,14.089V36.668A14.072,14.072,0,0,0,52.858,43.724Z"/><polygon class="cls-2" points="56.919 50.758 52.858 43.724 48.784 36.668 40.65 50.758 32.516 64.847 48.784 64.847 65.053 64.847 56.919 50.758"/><path class="cls-3" d="M79.142,50.758a14.089,14.089,0,0,0-14.089-14.09V64.847A14.089,14.089,0,0,0,79.142,50.758Z"/></svg>